<svg xmlns="http://www.w3.org/2000/svg" xmlns:xlink="http://www.w3.org/1999/xlink" width="99" zoomAndPan="magnify" viewBox="0 0 74.25 74.249997" height="99" preserveAspectRatio="xMidYMid meet" version="1.2"><defs><clipPath id="c2bb0c06e9"><path d="M 0 35 L 29 35 L 29 72.765625 L 0 72.765625 Z M 0 35 "/></clipPath><clipPath id="87e4f6c04c"><path d="M 20 44 L 58 44 L 58 72.765625 L 20 72.765625 Z M 20 44 "/></clipPath><clipPath id="f46f9ac073"><path d="M 34 0 L 72.765625 0 L 72.765625 40 L 34 40 Z M 34 0 "/></clipPath></defs><g id="ab4f6695a3"><path style=" stroke:none;fill-rule:nonzero;fill:#fe5d86;fill-opacity:1;" d="M 0 15.148438 L 0 43.40625 L 10.3125 43.40625 C 10.5 43.40625 10.550781 43.183594 10.453125 43.070312 C 10.304688 42.890625 10.238281 42.8125 9.980469 42.453125 C 9.460938 41.738281 8.9375 40.628906 9.023438 39.195312 C 9.113281 37.710938 9.894531 36.515625 10.878906 35.773438 C 11.859375 35.03125 13.027344 34.667969 14.128906 34.667969 C 15.234375 34.667969 16.402344 35.03125 17.382812 35.773438 C 18.367188 36.515625 19.148438 37.710938 19.238281 39.195312 C 19.320312 40.628906 18.796875 41.738281 18.28125 42.453125 C 18.019531 42.8125 17.957031 42.890625 17.808594 43.070312 C 17.710938 43.183594 17.761719 43.40625 17.949219 43.40625 L 28.261719 43.40625 L 28.261719 33.152344 C 28.261719 32.09375 28.882812 31.351562 29.65625 31.554688 C 30.300781 31.726562 31.195312 33.425781 33.503906 33.289062 C 35.808594 33.148438 36.996094 30.972656 36.996094 29.277344 C 36.996094 27.578125 35.808594 25.402344 33.503906 25.265625 C 31.195312 25.128906 30.300781 26.824219 29.65625 26.996094 C 28.882812 27.199219 28.261719 26.476562 28.261719 25.414062 L 28.261719 15.148438 Z M 0 15.148438 "/><g clip-rule="nonzero" clip-path="url(#c2bb0c06e9)"><path style=" stroke:none;fill-rule:nonzero;fill:#fe5d86;fill-opacity:1;" d="M 14.128906 35.765625 C 12.433594 35.765625 10.257812 36.953125 10.121094 39.261719 C 9.984375 41.570312 11.679688 42.464844 11.851562 43.105469 C 12.054688 43.878906 11.332031 44.503906 10.269531 44.503906 L 0 44.503906 L 0 72.765625 L 28.261719 72.765625 L 28.261719 62.453125 C 28.261719 62.265625 28.039062 62.214844 27.921875 62.3125 C 27.746094 62.460938 27.664062 62.527344 27.308594 62.785156 C 26.589844 63.304688 25.480469 63.828125 24.050781 63.742188 C 22.566406 63.652344 21.371094 62.871094 20.628906 61.886719 C 19.882812 60.90625 19.523438 59.738281 19.523438 58.636719 C 19.523438 57.53125 19.882812 56.363281 20.628906 55.382812 C 21.371094 54.398438 22.566406 53.617188 24.050781 53.527344 C 25.480469 53.441406 26.589844 53.964844 27.308594 54.484375 C 27.664062 54.746094 27.746094 54.808594 27.921875 54.957031 C 28.039062 55.054688 28.261719 55.003906 28.261719 54.816406 L 28.261719 44.503906 L 18.007812 44.503906 C 16.945312 44.503906 16.207031 43.878906 16.410156 43.105469 C 16.582031 42.464844 18.277344 41.570312 18.140625 39.261719 C 18.003906 36.953125 15.828125 35.765625 14.128906 35.765625 Z M 14.128906 35.765625 "/></g><g clip-rule="nonzero" clip-path="url(#87e4f6c04c)"><path style=" stroke:none;fill-rule:nonzero;fill:#fe5d86;fill-opacity:1;" d="M 29.359375 44.503906 L 29.359375 54.757812 C 29.359375 55.820312 28.734375 56.558594 27.960938 56.355469 C 27.316406 56.183594 26.425781 54.484375 24.117188 54.621094 C 21.808594 54.761719 20.621094 56.9375 20.621094 58.636719 C 20.621094 60.332031 21.808594 62.507812 24.117188 62.644531 C 26.425781 62.78125 27.316406 61.085938 27.960938 60.914062 C 28.734375 60.710938 29.359375 61.433594 29.359375 62.496094 L 29.359375 72.765625 L 57.621094 72.765625 L 57.621094 44.503906 L 47.070312 44.503906 C 46.085938 44.503906 45.414062 45.082031 45.605469 45.800781 C 45.761719 46.398438 47.339844 47.226562 47.210938 49.367188 C 47.082031 51.511719 45.066406 52.609375 43.488281 52.609375 C 41.914062 52.609375 39.894531 51.511719 39.765625 49.367188 C 39.640625 47.226562 41.214844 46.398438 41.375 45.800781 C 41.5625 45.082031 40.875 44.503906 39.890625 44.503906 Z M 29.359375 44.503906 "/></g><g clip-rule="nonzero" clip-path="url(#f46f9ac073)"><path style=" stroke:none;fill-rule:nonzero;fill:#fe5d86;fill-opacity:1;" d="M 48.089844 38.453125 L 57.042969 33.453125 C 57.96875 32.9375 58.921875 33.121094 59.121094 33.894531 C 59.285156 34.539062 58.234375 36.148438 59.480469 38.097656 C 60.726562 40.042969 63.207031 40.019531 64.6875 39.191406 C 66.171875 38.363281 67.492188 36.265625 66.484375 34.183594 C 65.480469 32.101562 63.5625 32.152344 63.101562 31.671875 C 62.546875 31.097656 62.875 30.199219 63.800781 29.679688 L 72.765625 24.675781 L 58.988281 0 L 34.3125 13.777344 L 39.453125 22.988281 C 39.933594 23.847656 40.769531 24.148438 41.304688 23.632812 C 41.746094 23.207031 41.703125 21.425781 43.636719 20.492188 C 45.566406 19.558594 47.511719 20.785156 48.28125 22.160156 C 49.046875 23.535156 49.070312 25.835938 47.265625 26.992188 C 45.457031 28.148438 43.964844 27.175781 43.367188 27.328125 C 42.644531 27.511719 42.476562 28.398438 42.957031 29.257812 Z M 48.089844 38.453125 "/></g></g></svg>