<svg xmlns="http://www.w3.org/2000/svg" xmlns:xlink="http://www.w3.org/1999/xlink" width="99" zoomAndPan="magnify" viewBox="0 0 74.25 74.249997" height="99" preserveAspectRatio="xMidYMid meet" version="1.2"><defs><clipPath id="edf2076020"><path d="M 0 0 L 72.765625 0 L 72.765625 72.765625 L 0 72.765625 Z M 0 0 "/></clipPath></defs><g id="dee0c6cdf2"><g clip-rule="nonzero" clip-path="url(#edf2076020)"><path style=" stroke:none;fill-rule:nonzero;fill:#fe5d86;fill-opacity:1;" d="M 64.613281 0 C 52.519531 0 36.292969 8.296875 25.394531 22.5625 L 16.359375 22.5625 C 9.832031 22.5625 6.089844 27.433594 3.515625 32.589844 L 0.0664062 39.484375 L 16.359375 39.484375 L 33.28125 56.40625 L 33.28125 72.703125 L 40.179688 69.253906 C 45.332031 66.675781 50.203125 62.933594 50.203125 56.40625 L 50.203125 47.371094 C 64.46875 36.476562 72.765625 20.246094 72.765625 8.152344 L 72.765625 0 Z M 50.203125 16.921875 C 53.320312 16.921875 55.84375 19.449219 55.84375 22.5625 C 55.84375 25.679688 53.320312 28.203125 50.203125 28.203125 C 47.089844 28.203125 44.5625 25.679688 44.5625 22.5625 C 44.5625 19.449219 47.089844 16.921875 50.203125 16.921875 Z M 13.539062 50.765625 L 10.71875 53.585938 C 6.644531 57.660156 5.078125 67.6875 5.078125 67.6875 C 5.078125 67.6875 14.65625 66.570312 19.179688 62.046875 L 22 59.226562 Z M 13.539062 50.765625 "/></g></g></svg>